PathFileType	4	(X/Y/Z)	C:/Users/beibeiliu/ov580/test_trc\sequence.11_training_dense_right.trc
DataRate	CameraRate	NumFrames	NumMarkers	Units	OrigDataRate	OrigDataStartFrame	OrigNumFrames
120	120	18	19	mm	120	63	124
Frame#	Time	ThumbCMC			ThumbMCP			ThumbIP			ThumbTip			IndexMCP			IndexPIP			IndexTip			MiddleMCP			MiddlePIP			MiddleTip			RingMCP			RingPIP			RingTip			PinkyMCP			PinkyPIP			PinkyTip			BackHand1			BackHand2			BackHand3	
		X0	Y0	Z0	X1	Y1	Z1	X2	Y2	Z2	X3	Y3	Z3	X4	Y4	Z4	X5	Y5	Z5	X6	Y6	Z6	X7	Y7	Z7	X8	Y8	Z8	X9	Y9	Z9	X10	Y10	Z10	X11	Y11	Z11	X12	Y12	Z12	X13	Y13	Z13	X14	Y14	Z14	X15	Y15	Z15	X16	Y16	Z16	X17	Y17	Z17	X18	Y18	Z18	
62	0.516667	211.317	-3.0617	134.541	195.042	5.88203	105.326	190.279	3.01048	74.4846	183.534	-9.24907	56.5849	236.571	-44.7602	83.1513	235.385	-47.0342	54.6236	225.151	-39.4619	26.5781	220.356	-62.3647	72.5969	209.94	-52.1486	46.4131	181.76	-29.349	37.5882	204.399	-74.6926	82.5359	198.953	-69.717	50.6406	179.774	-51.9362	31.0376	185.615	-84.6098	97.1895	183.738	-90.145	69.9964	178.52	-87.3945	42.3896	203.999	-65.9545	136.094	197.634	-60.3842	165.302	224.033	-40.9477	143.388	
63	0.525	211.922	-3.16851	133.719	196.358	4.81123	104.806	191.846	4.57294	76.843	183.57	-10.4181	54.7625	236.607	-45.8411	82.9101	239.803	-43.6286	51.4088	221.683	-41.5425	27.3674	219.452	-61.6611	76.1205	210.038	-54.5995	48.8915	180.447	-29.6867	37.7081	204.023	-74.7918	83.8964	196.242	-72.6934	54.0112	181.101	-55.3118	34.7106	185.961	-83.9229	97.8283	185.373	-88.8816	74.2818	177.876	-90.5435	45.634	205.845	-68.4794	134.413	198.565	-58.4661	165.942	225.795	-39.2276	143.933	
64	0.533333	210.821	-3.95759	140.086	197.909	5.15721	103.733	191.516	5.35838	79.9004	184.57	-12.1578	57.7039	240.826	-43.086	84.9215	239.539	-43.6182	50.5851	223.001	-41.0575	27.855	223.457	-59.6742	76.221	208.49	-55.4603	48.7931	186.392	-30.8374	37.9924	206.058	-75.0116	83.7084	195.556	-73.2977	50.9986	184.127	-56.544	35.1005	188.94	-83.7476	97.0327	184.847	-91.0827	71.7675	176.415	-92.4895	46.3029	205.179	-69.7504	134.496	199.914	-60.9514	165.798	224.712	-41.4089	146.947	
65	0.541667	211.374	-3.52375	137.557	195.836	2.63741	107.06	191.691	4.11384	80.221	183.655	-9.94005	60.2334	239.097	-43.6604	84.1613	234.74	-46.5468	51.7858	222.959	-41.6917	29.6383	220.644	-64.0195	73.637	208.925	-55.735	48.6925	187.524	-31.7838	38.5991	207.949	-73.7971	80.6069	199.153	-71.2236	53.0691	183.674	-52.5817	33.577	189.453	-84.3111	94.6431	182.6	-91.1256	68.8791	177.819	-89.5259	46.098	205.016	-68.6014	137.017	200.073	-58.3282	165.923	226.035	-44.8104	145.065	
66	0.55	210.779	-2.52807	136.297	194.264	4.19525	107.349	190.405	3.73835	76.5802	182.424	-11.3493	59.4295	236.89	-44.6871	80.0209	237.65	-43.5097	53.3371	221.351	-38.288	25.5166	220.412	-61.4865	76.8241	207.597	-54.5643	47.617	181.489	-29.7572	39.0704	206.006	-75.9762	78.5791	195.489	-71.0224	50.3184	182.418	-53.347	34.2914	188.529	-84.4976	95.7308	184.085	-90.4973	73.8017	174.007	-91.1672	44.5655	204.37	-71.3193	133.907	198.096	-59.9269	162.887	223.611	-41.697	146.679	
67	0.558333	210.198	-1.39105	136.3	192.577	3.37935	105.955	187.063	-1.06961	77.9507	179.889	-9.68389	58.3061	236.144	-44.8378	80.5701	234.684	-42.6302	51.6544	217.948	-40.4603	27.5293	220.539	-57.8769	72.4193	205.046	-52.8008	48.7867	180.33	-30.6131	40.3733	204.705	-75	83.8972	196.851	-71.5097	54.5847	180.611	-54.2121	35.2033	186.795	-85.4747	97.5269	186.268	-90.623	69.3616	177.52	-93.2663	46.6808	204.792	-67.9639	137.394	197.469	-60.7966	166.934	226.458	-40.3298	144.764	
68	0.566667	206.703	-2.42688	136.445	188.061	1.21323	108.669	180.966	3.39542	77.8796	175.055	-7.92224	57.4053	233.201	-43.054	82.3097	229.025	-44.1629	53.9278	215.783	-36.96	29.4866	216.406	-58.9563	72.1257	200.909	-49.4117	50.6698	175.388	-27.3	42.7955	204.064	-75.313	82.1522	196.813	-69.0764	55.0734	180.189	-51.614	32.9475	189.775	-84.6763	96.5607	188.169	-89.0407	75.4521	183.25	-92.988	45.2166	206.809	-66.6048	138.214	199.532	-60.8225	164.134	223.343	-43.3075	145.596	
69	0.575	205.179	-7.97338	134.128	185.338	-0.84716	108.689	177.326	-1.26462	77.7721	169.953	-7.74617	60.6685	232.2	-40.7342	76.7142	224.548	-40.038	51.726	209.541	-36.067	29.9225	215.142	-55.5424	74.0674	198.499	-44.6823	51.1064	168.384	-27.2849	45.5996	203.699	-74.0005	83.8414	195.583	-68.4143	56.8221	174.36	-55.8606	35.2643	192.173	-84.296	96.0259	185.508	-93.5033	76.8049	181.788	-96.5859	50.6859	206.001	-70.466	136.471	202.216	-57.2086	167.176	223.578	-38.3942	148.326	
70	0.583333	203.509	-6.85185	136.453	182.942	-1.57433	107.025	174.482	1.87954	78.7862	167.272	-7.23078	58.6548	226.782	-43.3788	74.9058	219.867	-38.9486	50.4223	202.112	-32.2626	26.897	210.57	-58.2398	74.9644	197.332	-44.7593	52.0285	167.551	-28.3566	45.9778	202.945	-71.682	83.0705	193.542	-69.0282	56.1809	176.202	-53.6418	35.8105	191.349	-85.3949	96.6381	185.585	-93.4763	72.8878	183.61	-96.1739	51.5701	204.132	-69.9551	134.922	201.159	-59.8157	162.871	224.543	-42.2032	146.168	
71	0.591667	204.425	-6.91522	135.392	184.917	3.17591	108.21	175.462	-2.26993	80.1721	167.475	-8.81671	56.8803	228.447	-42.6047	77.6382	216.538	-41.5667	50.1543	203.046	-33.7523	31.019	212.382	-56.1339	72.422	196.671	-47.2484	51.2843	167.501	-23.6547	46.1261	201.481	-73.458	81.8887	188.041	-72.3338	57.5108	171.238	-52.9905	35.6038	187.098	-85.3975	99.8922	186.047	-92.3547	76.7213	179.089	-95.3578	52.7784	204.668	-70.6673	139.299	200.263	-57.9929	168.38	221.481	-39.4798	148.833	
72	0.6	204.459	-4.43648	139.395	186.839	3.99484	106.567	178.526	1.67753	80.2997	169.587	-8.70187	59.8629	227.334	-42.9968	81.1307	217.289	-40.1737	49.0393	197.911	-32.7785	30.7759	212.095	-58.0931	74.5803	193.814	-50.4642	50.2593	170.947	-27.6349	45.473	201.564	-72.9581	84.7429	189.984	-68.4208	55.2278	168.081	-53.61	38.5647	186.994	-82.6647	100.672	182.553	-90.3948	72.3829	172.356	-93.5257	47.0364	203.819	-68.643	138.941	199.228	-60.7025	163.899	223.356	-38.5839	144.275	
73	0.608333	205.599	-4.15559	136.346	189.146	10.9287	108.643	180.098	5.89966	82.7292	172.502	-5.53158	62.3578	228.636	-41.4915	79.923	222.433	-36.8643	50.4961	202.507	-31.5727	31.6745	213.491	-57.8922	75.3627	197.742	-51.945	51.548	172.104	-28.3452	44.9795	200.901	-71.3829	85.1882	186.183	-70.9952	54.8767	167.797	-51.2655	39.4669	183.49	-82.6406	99.927	176.538	-91.3141	73.7621	168.715	-89.6611	45.4055	202.64	-65.3545	135.558	197.705	-56.8437	166.026	220.773	-36.9058	147.34	
74	0.616667	204.425	-4.58644	138.631	189.286	6.49014	108.844	181.44	6.45952	84.7528	172.112	-7.82587	64.7464	227.962	-42.1103	80.7111	221.166	-40.1526	49.5396	199.115	-35.2334	33.0227	212.478	-58.6127	75.148	194.224	-53.0076	50.0487	169.857	-32.1418	44.8528	199.184	-72.9472	85.635	183.165	-68.7936	53.7025	167.501	-52.6244	40.861	182.642	-83.314	99.7191	175.863	-90.4308	71.2222	168.271	-85.7678	45.8537	200.595	-69.3727	135.134	197.133	-58.314	166.797	221.521	-40.5453	144.128	
75	0.625	204.586	-4.90952	138.367	188.998	8.65662	112.232	181.117	9.40415	86.2547	171.832	-6.50476	61.3798	226.531	-42.7124	78.5641	219.023	-40.8673	50.6445	199.652	-32.1853	31.3321	213.236	-57.7176	78.0004	195.018	-50.9512	48.6171	166.337	-28.2143	46.0811	196.752	-74.3071	80.5652	186.241	-69.8929	57.0986	164.807	-50.9532	41.7563	181.796	-83.4702	100.584	174.98	-91.1767	76.4102	165.278	-88.1815	47.2823	200.283	-70.5145	135.662	196.602	-59.7922	165.835	223.111	-40.7304	144.544	
76	0.633333	204.211	-5.4994	140.261	188.453	6.07765	108.229	179.686	6.4388	85.1342	170.53	-4.4918	62.0475	224.645	-44.8696	82.4932	220.12	-39.9639	51.2612	193.357	-33.3682	31.0305	211.857	-58.7537	75.832	192.512	-52.8436	49.2925	168.489	-29.9537	46.237	197.93	-72.2268	83.7843	182.713	-69.3116	54.1929	164.149	-51.3383	41.6853	182.794	-82.6783	99.2521	176.212	-90.5604	75.7679	168.312	-87.6555	46.4389	200.548	-67.2331	139.323	197.966	-64.7497	164.256	220.125	-41.3448	149.257	
77	0.641667	203.644	-5.0432	137.207	184.328	3.4124	110.825	177.08	5.56711	84.1982	166.931	-5.52829	61.2345	225.958	-42.291	75.2791	215.224	-40.2103	49.1111	191.942	-35.1044	30.8121	207.79	-58.7208	73.4177	192.501	-49.049	49.2342	162.584	-29.6524	46.5281	194.118	-76.5608	78.5753	184.593	-69.0071	55.4098	166.222	-52.4016	39.4925	178.587	-86.5478	99.1301	172.466	-93.1025	73.2516	163.129	-90.3597	45.5136	199.436	-68.6177	134.76	195.214	-63.8387	162.123	217.517	-43.84	144.953	
78	0.65	201.201	-4.84614	137.07	179.747	4.41758	110.553	169.861	3.04355	78.3268	160.669	-10.3234	60.3306	219.703	-42.5931	77.9336	212.443	-37.9851	48.0108	189.049	-34.456	29.5649	205.537	-56.7368	75.5765	184.705	-49.5088	50.14	159.05	-27.4189	46.7963	192.128	-75.2862	79.6995	178.445	-71.5923	53.02	161.255	-53.2257	38.0452	179.091	-87.9193	96.275	172.469	-95.3922	76.0595	167.708	-95.205	48.6877	200.703	-69.3873	135.709	199.207	-60.888	164.744	217.851	-43.2821	142.83	
79	0.658333	198.224	-6.47365	134.208	175.785	1.9834	108.085	164.208	0.130611	86.4681	155.482	-9.61717	62.8958	217.784	-40.9734	72.3441	204.008	-40.1076	46.9694	187.245	-31.1274	29.038	203.16	-55.6385	74.3321	182.598	-47.3689	51.3944	153.396	-22.2652	49.4981	191.97	-73.0644	83.0284	178.287	-70.2748	53.5557	157.853	-53.3964	36.9926	177.767	-89.4135	98.8644	176.077	-93.4306	76.1153	166.276	-100.274	48.7972	199.257	-69.3777	137.412	198.894	-61.2917	162.572	216.975	-41.316	144.142	
